<?xml version="1.0" encoding="iso-8859-1"?>
<!-- Generator: Adobe Illustrator 17.1.0, SVG Export Plug-In . SVG Version: 6.00 Build 0)  -->
<!DOCTYPE svg PUBLIC "-//W3C//DTD SVG 1.1//EN" "http://www.w3.org/Graphics/SVG/1.1/DTD/svg11.dtd">
<svg version="1.1" id="Capa_1" xmlns="http://www.w3.org/2000/svg" xmlns:xlink="http://www.w3.org/1999/xlink" x="0px" y="0px"
	 viewBox="0 0 195.92 195.92" style="enable-background:new 0 0 195.92 195.92;" xml:space="preserve">
<path d="M137.146,195.92H58.774c-1.104,0-2-0.896-2-2c0-6.032,4.519-10.993,10.239-11.455c-3.199-2.179-7.238-5.551-11.968-10.758
	c-0.1-0.091-0.191-0.191-0.271-0.3c-3.733-4.143-7.892-9.426-12.403-16.159c-15.676-23.396-15.497-61.919-14.691-77.395
	c0.209-4.017,3.098-7.375,7.025-8.168c10.833-2.188,36.029-9.529,36.029-30.414c0-11.315-3.314-19.357-7.17-24.885
	c-0.056-0.069-0.107-0.143-0.153-0.219c-1.451-2.046-2.972-3.741-4.418-5.124c-1.571-1.5-2.066-3.768-1.261-5.775
	C58.527,1.283,60.428,0,62.575,0h70.771c2.146,0,4.048,1.283,4.844,3.269c0.805,2.008,0.31,4.275-1.262,5.776
	c-1.447,1.383-2.968,3.078-4.419,5.126c-0.045,0.074-0.095,0.146-0.15,0.213c-3.857,5.527-7.172,13.57-7.172,24.888
	c0,20.885,25.196,28.227,36.029,30.414c3.928,0.793,6.817,4.151,7.025,8.168c0.805,15.476,0.985,53.998-14.691,77.395l-1.662-1.113
	l1.662,1.113c-4.511,6.733-8.669,12.015-12.402,16.157c-0.081,0.11-0.173,0.212-0.274,0.304c-4.73,5.207-8.768,8.577-11.967,10.756
	c5.721,0.461,10.239,5.423,10.239,11.455C139.146,195.024,138.25,195.92,137.146,195.92z M61.031,191.92h73.857
	c-0.833-3.162-3.59-5.49-6.854-5.49h-60.15C64.622,186.43,61.864,188.758,61.031,191.92z M75.769,182.43h44.393
	c0.703-0.156,6.052-1.586,14.699-10.207H61.061C69.648,180.782,74.988,182.254,75.769,182.43z M57.292,168.223h81.336
	c3.475-3.907,7.362-8.879,11.598-15.201l0,0c8.952-13.36,12.492-32.09,13.724-48.229H31.969
	c1.232,16.139,4.772,34.868,13.725,48.229C49.93,159.344,53.817,164.315,57.292,168.223z M147.806,100.793h16.408
	c0.364-6.563,0.368-12.553,0.241-17.383H31.465c-0.127,4.83-0.124,10.819,0.241,17.383h2.632V87.901c0-1.104,0.896-2,2-2h13.776
	c1.104,0,2,0.896,2,2v7.884c0,1.104-0.896,2-2,2h-7.872c-1.104,0-2-0.896-2-2s0.896-2,2-2h5.872v-3.884h-9.776v10.892h17.894V87.901
	c0-1.104,0.896-2,2-2h13.776c1.104,0,2,0.896,2,2v7.884c0,1.104-0.896,2-2,2h-7.872c-1.104,0-2-0.896-2-2s0.896-2,2-2h5.872v-3.884
	h-9.776v10.892h17.894V87.901c0-1.104,0.896-2,2-2h13.776c1.104,0,2,0.896,2,2v7.884c0,1.104-0.896,2-2,2h-7.872
	c-1.104,0-2-0.896-2-2s0.896-2,2-2h5.872v-3.884h-9.776v10.892h17.894V87.901c0-1.104,0.896-2,2-2h13.776c1.104,0,2,0.896,2,2v7.884
	c0,1.104-0.896,2-2,2h-7.872c-1.104,0-2-0.896-2-2s0.896-2,2-2h5.872v-3.884h-9.776v10.892h17.894V87.901c0-1.104,0.896-2,2-2
	h13.776c1.104,0,2,0.896,2,2v7.884c0,1.104-0.896,2-2,2h-7.872c-1.104,0-2-0.896-2-2s0.896-2,2-2h5.872v-3.884h-9.776v10.892h17.894
	V87.901c0-1.104,0.896-2,2-2h13.776c1.104,0,2,0.896,2,2v7.884c0,1.104-0.896,2-2,2h-7.872c-1.104,0-2-0.896-2-2s0.896-2,2-2h5.872
	v-3.884h-9.776V100.793z M31.608,79.41h132.704c-0.021-0.468-0.043-0.918-0.065-1.35c-0.114-2.191-1.686-4.023-3.823-4.454
	c-11.797-2.383-39.237-10.496-39.237-34.335c0-10.386,2.598-18.276,5.963-24.141H68.771c3.365,5.864,5.963,13.755,5.963,24.141
	c0,23.839-27.44,31.952-39.237,34.335c-2.137,0.431-3.708,2.263-3.823,4.454C31.651,78.492,31.629,78.942,31.608,79.41z
	 M66.15,11.131h63.621c1.454-1.955,2.958-3.604,4.395-4.978c0.585-0.56,0.387-1.21,0.312-1.396C134.386,4.529,134.093,4,133.346,4
	H62.575c-0.747,0-1.04,0.529-1.131,0.758c-0.075,0.186-0.273,0.837,0.312,1.395C63.192,7.526,64.696,9.176,66.15,11.131z"/>
<g>
</g>
<g>
</g>
<g>
</g>
<g>
</g>
<g>
</g>
<g>
</g>
<g>
</g>
<g>
</g>
<g>
</g>
<g>
</g>
<g>
</g>
<g>
</g>
<g>
</g>
<g>
</g>
<g>
</g>
</svg>
